<svg width="724" height="132" viewBox="0 0 724 132" fill="none" xmlns="http://www.w3.org/2000/svg">
    <path opacity="0.3"
          d="M98.44 2.99999V1.99999H97.8759L97.5841 2.48284L98.44 2.99999ZM124 2.99999H125V1.99999H124V2.99999ZM124 129V130H125V129H124ZM99.34 129H98.34V130H99.34V129ZM99.34 47.28H100.34V43.7011L98.4848 46.7616L99.34 47.28ZM63.88 105.78V106.78H64.4432L64.7352 106.298L63.88 105.78ZM61 105.78L60.1455 106.3L60.4377 106.78H61V105.78ZM25.54 47.46L26.3945 46.9405L24.54 43.8905V47.46H25.54ZM25.54 129V130H26.54V129H25.54ZM0.700001 129H-0.299999V130H0.700001V129ZM0.700001 2.99999V1.99999H-0.299999V2.99999H0.700001ZM26.26 2.99999L27.1147 2.48095L26.8227 1.99999H26.26V2.99999ZM62.44 62.58L61.5853 63.099L62.4421 64.5101L63.2959 63.0972L62.44 62.58ZM98.44 3.99999H124V1.99999H98.44V3.99999ZM123 2.99999V129H125V2.99999H123ZM124 128H99.34V130H124V128ZM100.34 129V47.28H98.34V129H100.34ZM98.4848 46.7616L63.0248 105.262L64.7352 106.298L100.195 47.7984L98.4848 46.7616ZM63.88 104.78H61V106.78H63.88V104.78ZM61.8545 105.26L26.3945 46.9405L24.6855 47.9795L60.1455 106.3L61.8545 105.26ZM24.54 47.46V129H26.54V47.46H24.54ZM25.54 128H0.700001V130H25.54V128ZM1.7 129V2.99999H-0.299999V129H1.7ZM0.700001 3.99999H26.26V1.99999H0.700001V3.99999ZM25.4053 3.51904L61.5853 63.099L63.2948 62.061L27.1147 2.48095L25.4053 3.51904ZM63.2959 63.0972L99.2959 3.51715L97.5841 2.48284L61.5841 62.0628L63.2959 63.0972ZM255.477 129V130H256.889L256.421 128.668L255.477 129ZM228.477 129L227.529 129.316L227.757 130H228.477V129ZM220.917 106.32L221.866 106.004L221.638 105.32H220.917V106.32ZM170.697 106.32V105.32H169.977L169.749 106.004L170.697 106.32ZM163.137 129V130H163.858L164.086 129.316L163.137 129ZM136.317 129L135.373 128.67L134.908 130H136.317V129ZM180.417 2.99999V1.99999H179.708L179.473 2.66964L180.417 2.99999ZM211.197 2.99999L212.141 2.66844L211.906 1.99999H211.197V2.99999ZM195.897 31.62L196.845 31.3018L195.897 28.4775L194.949 31.3018L195.897 31.62ZM178.617 83.1L177.669 82.7818L177.227 84.1H178.617V83.1ZM213.177 83.1V84.1H214.568L214.125 82.7818L213.177 83.1ZM255.477 128H228.477V130H255.477V128ZM229.426 128.684L221.866 106.004L219.969 106.636L227.529 129.316L229.426 128.684ZM220.917 105.32H170.697V107.32H220.917V105.32ZM169.749 106.004L162.189 128.684L164.086 129.316L171.646 106.636L169.749 106.004ZM163.137 128H136.317V130H163.137V128ZM137.261 129.33L181.361 3.33034L179.473 2.66964L135.373 128.67L137.261 129.33ZM180.417 3.99999H211.197V1.99999H180.417V3.99999ZM210.254 3.33154L254.534 129.332L256.421 128.668L212.141 2.66844L210.254 3.33154ZM194.949 31.3018L177.669 82.7818L179.565 83.4182L196.845 31.9382L194.949 31.3018ZM178.617 84.1H213.177V82.1H178.617V84.1ZM214.125 82.7818L196.845 31.3018L194.949 31.9382L212.229 83.4182L214.125 82.7818ZM340.612 79.86L339.793 80.4349L341.612 83.0228V79.86H340.612ZM340.612 2.99999V1.99999H339.612V2.99999H340.612ZM365.452 2.99999H366.452V1.99999H365.452V2.99999ZM365.452 129V130H366.452V129H365.452ZM346.552 129L345.733 129.574L346.031 130H346.552V129ZM292.552 51.96L293.371 51.386L291.552 48.7911V51.96H292.552ZM292.552 129V130H293.552V129H292.552ZM267.712 129H266.712V130H267.712V129ZM267.712 2.99999V1.99999H266.712V2.99999H267.712ZM286.612 2.99999L287.43 2.42511L287.131 1.99999H286.612V2.99999ZM341.612 79.86V2.99999H339.612V79.86H341.612ZM340.612 3.99999H365.452V1.99999H340.612V3.99999ZM364.452 2.99999V129H366.452V2.99999H364.452ZM365.452 128H346.552V130H365.452V128ZM347.371 128.426L293.371 51.386L291.733 52.534L345.733 129.574L347.371 128.426ZM291.552 51.96V129H293.552V51.96H291.552ZM292.552 128H267.712V130H292.552V128ZM268.712 129V2.99999H266.712V129H268.712ZM267.712 3.99999H286.612V1.99999H267.712V3.99999ZM285.793 3.57487L339.793 80.4349L341.43 79.2851L287.43 2.42511L285.793 3.57487ZM496.825 129V130H498.236L497.768 128.668L496.825 129ZM469.825 129L468.876 129.316L469.104 130H469.825V129ZM462.265 106.32L463.214 106.004L462.986 105.32H462.265V106.32ZM412.045 106.32V105.32H411.324L411.096 106.004L412.045 106.32ZM404.485 129V130H405.206L405.434 129.316L404.485 129ZM377.665 129L376.721 128.67L376.256 130H377.665V129ZM421.765 2.99999V1.99999H421.056L420.821 2.66964L421.765 2.99999ZM452.545 2.99999L453.488 2.66844L453.254 1.99999H452.545V2.99999ZM437.245 31.62L438.193 31.3018L437.245 28.4775L436.297 31.3018L437.245 31.62ZM419.965 83.1L419.017 82.7818L418.574 84.1H419.965V83.1ZM454.525 83.1V84.1H455.915L455.473 82.7818L454.525 83.1ZM496.825 128H469.825V130H496.825V128ZM470.774 128.684L463.214 106.004L461.316 106.636L468.876 129.316L470.774 128.684ZM462.265 105.32H412.045V107.32H462.265V105.32ZM411.096 106.004L403.536 128.684L405.434 129.316L412.994 106.636L411.096 106.004ZM404.485 128H377.665V130H404.485V128ZM378.609 129.33L422.709 3.33034L420.821 2.66964L376.721 128.67L378.609 129.33ZM421.765 3.99999H452.545V1.99999H421.765V3.99999ZM451.602 3.33154L495.882 129.332L497.768 128.668L453.488 2.66844L451.602 3.33154ZM436.297 31.3018L419.017 82.7818L420.913 83.4182L438.193 31.9382L436.297 31.3018ZM419.965 84.1H454.525V82.1H419.965V84.1ZM455.473 82.7818L438.193 31.3018L436.297 31.9382L453.577 83.4182L455.473 82.7818ZM564.969 61.32V60.32H563.969V61.32H564.969ZM628.149 61.32H629.149V60.32H628.149V61.32ZM610.869 114.78L610.173 114.062L610.869 114.78ZM517.809 112.62L517.102 113.327L517.109 113.334L517.809 112.62ZM517.629 19.56L516.922 18.8529L516.919 18.8562L517.629 19.56ZM596.829 8.4L596.352 9.27872L596.829 8.4ZM619.689 29.82L620.188 30.6864L621.079 30.1733L620.542 29.2972L619.689 29.82ZM598.449 42.06L597.585 42.5626L598.085 43.4238L598.948 42.9264L598.449 42.06ZM584.769 29.46L585.237 28.5762L584.769 29.46ZM534.909 36.48L535.616 37.1871L535.622 37.1817L535.627 37.1761L534.909 36.48ZM535.089 95.7L534.382 96.4071L534.387 96.4126L535.089 95.7ZM590.169 100.92L589.618 100.086L590.169 100.92ZM603.129 83.28L604.086 83.5687L604.475 82.28H603.129V83.28ZM564.969 83.28H563.969V84.28H564.969V83.28ZM564.969 62.32H628.149V60.32H564.969V62.32ZM627.149 61.32V71.04H629.149V61.32H627.149ZM627.149 71.04C627.149 88.8056 621.474 103.114 610.173 114.062L611.565 115.498C623.304 104.126 629.149 89.2744 629.149 71.04H627.149ZM610.173 114.062C598.866 125.016 584.248 130.52 566.229 130.52V132.52C584.69 132.52 599.832 126.864 611.565 115.498L610.173 114.062ZM566.229 130.52C547.028 130.52 531.147 124.307 518.509 111.906L517.109 113.334C530.152 126.133 546.55 132.52 566.229 132.52V130.52ZM518.516 111.913C505.987 99.3833 499.729 84.1589 499.729 66.18H497.729C497.729 84.6811 504.192 100.417 517.102 113.327L518.516 111.913ZM499.729 66.18C499.729 48.0761 505.93 32.7912 518.34 20.2637L516.919 18.8562C504.128 31.7688 497.729 47.5639 497.729 66.18H499.729ZM518.336 20.2671C530.86 7.74297 546.322 1.47999 564.789 1.47999V-0.520008C545.816 -0.520008 529.838 5.93701 516.922 18.8529L518.336 20.2671ZM564.789 1.47999C576.271 1.47999 586.786 4.0825 596.352 9.27872L597.306 7.52127C587.432 2.15749 576.587 -0.520008 564.789 -0.520008V1.47999ZM596.352 9.27872C605.925 14.4792 613.413 21.4995 618.837 30.3428L620.542 29.2972C614.925 20.1405 607.173 12.8808 597.306 7.52127L596.352 9.27872ZM619.19 28.9536L597.95 41.1936L598.948 42.9264L620.188 30.6864L619.19 28.9536ZM599.314 41.5574C596.205 36.2113 591.495 31.8894 585.237 28.5762L584.301 30.3438C590.283 33.5106 594.693 37.5887 597.585 42.5626L599.314 41.5574ZM585.237 28.5762C578.965 25.2555 572.083 23.6 564.609 23.6V25.6C571.776 25.6 578.334 27.1845 584.301 30.3438L585.237 28.5762ZM564.609 23.6C552.248 23.6 542.079 27.6494 534.191 35.7839L535.627 37.1761C543.099 29.4706 552.73 25.6 564.609 25.6V23.6ZM534.202 35.7729C526.312 43.6629 522.389 53.8284 522.389 66.18H524.389C524.389 54.2916 528.146 44.6571 535.616 37.1871L534.202 35.7729ZM522.389 66.18C522.389 78.3027 526.379 88.4042 534.382 96.4071L535.796 94.9929C528.199 87.3958 524.389 77.8173 524.389 66.18H522.389ZM534.387 96.4126C542.41 104.312 553.121 108.22 566.409 108.22V106.22C553.537 106.22 543.368 102.448 535.791 94.9874L534.387 96.4126ZM566.409 108.22C576.037 108.22 584.161 106.086 590.72 101.754L589.618 100.086C583.457 104.154 575.741 106.22 566.409 106.22V108.22ZM590.72 101.754C597.283 97.4207 601.742 91.3438 604.086 83.5687L602.172 82.9913C599.957 90.3362 595.775 96.0193 589.618 100.086L590.72 101.754ZM603.129 82.28H564.969V84.28H603.129V82.28ZM565.969 83.28V61.32H563.969V83.28H565.969ZM670.657 76.98V75.98H669.657V76.98H670.657ZM670.657 105.24H669.657V106.24H670.657V105.24ZM723.757 105.24H724.757V104.24H723.757V105.24ZM723.757 129V130H724.757V129H723.757ZM645.817 129H644.817V130H645.817V129ZM645.817 2.99999V1.99999H644.817V2.99999H645.817ZM722.857 2.99999H723.857V1.99999H722.857V2.99999ZM722.857 26.76V27.76H723.857V26.76H722.857ZM670.657 26.76V25.76H669.657V26.76H670.657ZM670.657 53.58H669.657V54.58H670.657V53.58ZM718.357 53.58H719.357V52.58H718.357V53.58ZM718.357 76.98V77.98H719.357V76.98H718.357ZM669.657 76.98V105.24H671.657V76.98H669.657ZM670.657 106.24H723.757V104.24H670.657V106.24ZM722.757 105.24V129H724.757V105.24H722.757ZM723.757 128H645.817V130H723.757V128ZM646.817 129V2.99999H644.817V129H646.817ZM645.817 3.99999H722.857V1.99999H645.817V3.99999ZM721.857 2.99999V26.76H723.857V2.99999H721.857ZM722.857 25.76H670.657V27.76H722.857V25.76ZM669.657 26.76V53.58H671.657V26.76H669.657ZM670.657 54.58H718.357V52.58H670.657V54.58ZM717.357 53.58V76.98H719.357V53.58H717.357ZM718.357 75.98H670.657V77.98H718.357V75.98Z"
          fill="url(#paint0_linear_11_1603)"/>
    <defs>
        <linearGradient id="paint0_linear_11_1603" x1="680.299" y1="8.79268" x2="560.396" y2="359.849"
                        gradientUnits="userSpaceOnUse">
            <stop stop-color="#5790FF"/>
            <stop offset="1" stop-color="#A5FDC3"/>
        </linearGradient>
    </defs>
</svg>
