<svg width="1440" height="132" viewBox="0 0 1440 132" fill="none" xmlns="http://www.w3.org/2000/svg">
    <path opacity="0.3"
          d="M-166.3 129V130H-164.889L-165.357 128.668L-166.3 129ZM-193.3 129L-194.249 129.316L-194.021 130H-193.3V129ZM-200.86 106.32L-199.911 106.004L-200.139 105.32H-200.86V106.32ZM-251.08 106.32V105.32H-251.801L-252.029 106.004L-251.08 106.32ZM-258.64 129V130H-257.919L-257.691 129.316L-258.64 129ZM-285.46 129L-286.404 128.67L-286.869 130H-285.46V129ZM-241.36 2.99999V1.99999H-242.069L-242.304 2.66964L-241.36 2.99999ZM-210.58 2.99999L-209.637 2.66844L-209.871 1.99999H-210.58V2.99999ZM-225.88 31.62L-224.932 31.3018L-225.88 28.4775L-226.828 31.3018L-225.88 31.62ZM-243.16 83.1L-244.108 82.7818L-244.55 84.1H-243.16V83.1ZM-208.6 83.1V84.1H-207.21L-207.652 82.7818L-208.6 83.1ZM-166.3 128H-193.3V130H-166.3V128ZM-192.351 128.684L-199.911 106.004L-201.809 106.636L-194.249 129.316L-192.351 128.684ZM-200.86 105.32H-251.08V107.32H-200.86V105.32ZM-252.029 106.004L-259.589 128.684L-257.691 129.316L-250.131 106.636L-252.029 106.004ZM-258.64 128H-285.46V130H-258.64V128ZM-284.516 129.33L-240.416 3.33034L-242.304 2.66964L-286.404 128.67L-284.516 129.33ZM-241.36 3.99999H-210.58V1.99999H-241.36V3.99999ZM-211.523 3.33154L-167.243 129.332L-165.357 128.668L-209.637 2.66844L-211.523 3.33154ZM-226.828 31.3018L-244.108 82.7818L-242.212 83.4182L-224.932 31.9382L-226.828 31.3018ZM-243.16 84.1H-208.6V82.1H-243.16V84.1ZM-207.652 82.7818L-224.932 31.3018L-226.828 31.9382L-209.548 83.4182L-207.652 82.7818ZM-145.856 112.62L-146.566 113.324L-146.566 113.324L-145.856 112.62ZM-145.856 19.38L-145.149 20.0871L-145.145 20.0837L-145.856 19.38ZM-67.3759 8.57999L-67.8662 9.45157L-67.8598 9.45519L-67.8533 9.45872L-67.3759 8.57999ZM-44.6959 30.18L-44.1943 31.0451L-43.3213 30.5389L-43.8355 29.6705L-44.6959 30.18ZM-66.1159 42.6L-66.991 43.0841L-66.497 43.9769L-65.6143 43.4651L-66.1159 42.6ZM-79.4359 29.46L-79.9262 30.3316L-79.9192 30.3355L-79.9122 30.3393L-79.4359 29.46ZM-128.576 36.12L-129.289 35.4185L-129.294 35.4241L-129.3 35.4298L-128.576 36.12ZM-128.576 95.7L-129.3 96.3902L-129.294 96.3959L-129.289 96.4015L-128.576 95.7ZM-79.4359 102.54L-78.9596 103.419L-78.9533 103.416L-79.4359 102.54ZM-66.1159 89.4L-65.6143 88.5349L-66.5037 88.0192L-66.9946 88.9225L-66.1159 89.4ZM-44.6959 101.82L-43.8355 102.329L-43.3213 101.461L-44.1943 100.955L-44.6959 101.82ZM-67.3759 123.6L-66.894 124.476L-66.8903 124.474L-67.3759 123.6ZM-98.8759 130.52C-117.468 130.52 -132.866 124.314 -145.145 111.916L-146.566 113.324C-133.886 126.126 -117.964 132.52 -98.8759 132.52V130.52ZM-145.145 111.916C-157.308 99.6355 -163.396 84.3537 -163.396 66H-165.396C-165.396 84.8463 -159.124 100.645 -146.566 113.324L-145.145 111.916ZM-163.396 66C-163.396 47.5244 -157.307 32.2453 -145.149 20.0871L-146.563 18.6729C-159.125 31.2347 -165.396 47.0356 -165.396 66H-163.396ZM-145.145 20.0837C-132.866 7.68606 -117.468 1.47999 -98.8759 1.47999V-0.520008C-117.964 -0.520008 -133.886 5.87392 -146.566 18.6763L-145.145 20.0837ZM-98.8759 1.47999C-87.6414 1.47999 -77.3111 4.13878 -67.8662 9.45157L-66.8857 7.70842C-76.6407 2.2212 -87.3105 -0.520008 -98.8759 -0.520008V1.47999ZM-67.8533 9.45872C-58.2847 14.6564 -50.8603 21.7319 -45.5564 30.6895L-43.8355 29.6705C-49.3316 20.3881 -57.0271 13.0636 -66.8986 7.70127L-67.8533 9.45872ZM-45.1975 29.3149L-66.6175 41.7349L-65.6143 43.4651L-44.1943 31.0451L-45.1975 29.3149ZM-65.2409 42.1159C-68.4549 36.3059 -73.0346 31.7901 -78.9597 28.5807L-79.9122 30.3393C-74.3172 33.3699 -70.0169 37.614 -66.991 43.0841L-65.2409 42.1159ZM-78.9457 28.5884C-84.8685 25.2568 -91.52 23.6 -98.8759 23.6V25.6C-91.8319 25.6 -85.5233 27.1832 -79.9262 30.3316L-78.9457 28.5884ZM-98.8759 23.6C-111.344 23.6 -121.514 27.521 -129.289 35.4185L-127.863 36.8215C-120.517 29.359 -110.888 25.6 -98.8759 25.6V23.6ZM-129.3 35.4298C-136.94 43.4394 -140.736 53.6576 -140.736 66H-138.736C-138.736 54.1024 -135.092 44.4006 -127.852 36.8102L-129.3 35.4298ZM-140.736 66C-140.736 78.2254 -136.938 88.3825 -129.3 96.3902L-127.852 95.0098C-135.094 87.4175 -138.736 77.7746 -138.736 66H-140.736ZM-129.289 96.4015C-121.514 104.299 -111.344 108.22 -98.8759 108.22V106.22C-110.888 106.22 -120.517 102.461 -127.863 94.9985L-129.289 96.4015ZM-98.8759 108.22C-91.5265 108.22 -84.88 106.626 -78.9597 103.419L-79.9122 101.661C-85.5118 104.694 -91.8254 106.22 -98.8759 106.22V108.22ZM-78.9533 103.416C-72.918 100.09 -68.3349 95.577 -65.2373 89.8775L-66.9946 88.9225C-69.897 94.263 -74.1939 98.5098 -79.9185 101.664L-78.9533 103.416ZM-66.6175 90.2651L-45.1975 102.685L-44.1943 100.955L-65.6143 88.5349L-66.6175 90.2651ZM-45.5564 101.311C-50.8615 110.27 -58.2887 117.408 -67.8616 122.726L-66.8903 124.474C-57.0231 118.992 -49.3304 111.61 -43.8355 102.329L-45.5564 101.311ZM-67.8578 122.724C-77.3041 127.919 -87.6373 130.52 -98.8759 130.52V132.52C-87.3145 132.52 -76.6478 129.841 -66.894 124.476L-67.8578 122.724ZM-17.8872 112.62L-18.5977 113.324L-18.5977 113.324L-17.8872 112.62ZM-17.8872 19.38L-17.1801 20.0871L-17.1767 20.0837L-17.8872 19.38ZM60.5928 8.57999L60.1026 9.45157L60.109 9.45519L60.1155 9.45872L60.5928 8.57999ZM83.2728 30.18L83.7744 31.0451L84.6475 30.5389L84.1333 29.6705L83.2728 30.18ZM61.8528 42.6L60.9778 43.0841L61.4717 43.9769L62.3544 43.4651L61.8528 42.6ZM48.5328 29.46L48.0425 30.3316L48.0495 30.3355L48.0565 30.3393L48.5328 29.46ZM-0.607178 36.12L-1.31982 35.4185L-1.32535 35.4241L-1.33078 35.4298L-0.607178 36.12ZM-0.607178 95.7L-1.33078 96.3902L-1.32535 96.3959L-1.31982 96.4015L-0.607178 95.7ZM48.5328 102.54L49.0091 103.419L49.0154 103.416L48.5328 102.54ZM61.8528 89.4L62.3544 88.5349L61.4651 88.0192L60.9742 88.9225L61.8528 89.4ZM83.2728 101.82L84.1333 102.329L84.6475 101.461L83.7744 100.955L83.2728 101.82ZM60.5928 123.6L61.0747 124.476L61.0785 124.474L60.5928 123.6ZM29.0928 130.52C10.5012 130.52 -4.89713 124.314 -17.1767 111.916L-18.5977 113.324C-5.91724 126.126 10.0044 132.52 29.0928 132.52V130.52ZM-17.1767 111.916C-29.3394 99.6355 -35.4272 84.3537 -35.4272 66H-37.4272C-37.4272 84.8463 -31.1549 100.645 -18.5977 113.324L-17.1767 111.916ZM-35.4272 66C-35.4272 47.5244 -29.3383 32.2453 -17.1801 20.0871L-18.5943 18.6729C-31.1561 31.2347 -37.4272 47.0356 -37.4272 66H-35.4272ZM-17.1767 20.0837C-4.89713 7.68606 10.5012 1.47999 29.0928 1.47999V-0.520008C10.0044 -0.520008 -5.91724 5.87392 -18.5977 18.6763L-17.1767 20.0837ZM29.0928 1.47999C40.3273 1.47999 50.6576 4.13878 60.1026 9.45157L61.0831 7.70842C51.328 2.2212 40.6583 -0.520008 29.0928 -0.520008V1.47999ZM60.1155 9.45872C69.684 14.6564 77.1085 21.7319 82.4124 30.6895L84.1333 29.6705C78.6371 20.3881 70.9416 13.0636 61.0702 7.70127L60.1155 9.45872ZM82.7712 29.3149L61.3512 41.7349L62.3544 43.4651L83.7744 31.0451L82.7712 29.3149ZM62.7278 42.1159C59.5138 36.3059 54.9341 31.7901 49.0091 28.5807L48.0565 30.3393C53.6515 33.3699 57.9518 37.614 60.9778 43.0841L62.7278 42.1159ZM49.0231 28.5884C43.1002 25.2568 36.4488 23.6 29.0928 23.6V25.6C36.1369 25.6 42.4454 27.1832 48.0425 30.3316L49.0231 28.5884ZM29.0928 23.6C16.6246 23.6 6.45425 27.521 -1.31982 35.4185L0.105469 36.8215C7.45135 29.359 17.0811 25.6 29.0928 25.6V23.6ZM-1.33078 35.4298C-8.97076 43.4394 -12.7672 53.6576 -12.7672 66H-10.7672C-10.7672 54.1024 -7.1236 44.4006 0.116425 36.8102L-1.33078 35.4298ZM-12.7672 66C-12.7672 78.2254 -8.9689 88.3825 -1.33078 96.3902L0.116425 95.0098C-7.12546 87.4175 -10.7672 77.7746 -10.7672 66H-12.7672ZM-1.31982 96.4015C6.45425 104.299 16.6246 108.22 29.0928 108.22V106.22C17.0811 106.22 7.45135 102.461 0.105469 94.9985L-1.31982 96.4015ZM29.0928 108.22C36.4423 108.22 43.0887 106.626 49.0091 103.419L48.0565 101.661C42.4569 104.694 36.1433 106.22 29.0928 106.22V108.22ZM49.0154 103.416C55.0508 100.09 59.6339 95.577 62.7314 89.8775L60.9742 88.9225C58.0718 94.263 53.7749 98.5098 48.0502 101.664L49.0154 103.416ZM61.3512 90.2651L82.7712 102.685L83.7744 100.955L62.3544 88.5349L61.3512 90.2651ZM82.4124 101.311C77.1072 110.27 69.68 117.408 60.1072 122.726L61.0785 124.474C70.9456 118.992 78.6384 111.61 84.1333 102.329L82.4124 101.311ZM60.1109 122.724C50.6646 127.919 40.3314 130.52 29.0928 130.52V132.52C40.6542 132.52 51.321 129.841 61.0747 124.476L60.1109 122.724ZM203.322 112.62L204.025 113.33L204.029 113.327L203.322 112.62ZM110.442 112.62L109.728 113.32L109.733 113.325L109.738 113.33L110.442 112.62ZM110.442 19.56L109.734 18.8529L110.442 19.56ZM203.322 19.56L202.614 20.2671L202.618 20.2704L203.322 19.56ZM127.902 95.7L127.194 96.4071L127.902 95.7ZM185.862 95.7L186.569 96.4071L185.862 95.7ZM185.862 36.3L186.569 35.5929L185.862 36.3ZM127.902 36.3L127.194 35.5929L127.902 36.3ZM202.618 111.91C190.089 124.32 174.864 130.52 156.882 130.52V132.52C175.38 132.52 191.114 126.12 204.025 113.33L202.618 111.91ZM156.882 130.52C138.9 130.52 123.674 124.32 111.145 111.91L109.738 113.33C122.649 126.12 138.384 132.52 156.882 132.52V130.52ZM111.155 111.92C98.7416 99.2695 92.5416 83.9821 92.5416 66H90.5416C90.5416 84.4979 96.9415 100.291 109.728 113.32L111.155 111.92ZM92.5416 66C92.5416 47.8962 98.7425 32.6733 111.149 20.2671L109.734 18.8529C96.9406 31.6467 90.5416 47.3838 90.5416 66H92.5416ZM111.149 20.2671C123.678 7.73756 138.903 1.47999 156.882 1.47999V-0.520008C138.381 -0.520008 122.645 5.94243 109.734 18.8529L111.149 20.2671ZM156.882 1.47999C174.861 1.47999 190.085 7.73756 202.614 20.2671L204.029 18.8529C191.118 5.94243 175.383 -0.520008 156.882 -0.520008V1.47999ZM202.618 20.2704C215.143 32.6773 221.402 47.8992 221.402 66H223.402C223.402 47.3808 216.94 31.6426 204.025 18.8495L202.618 20.2704ZM221.402 66C221.402 84.1009 215.143 99.3847 202.614 111.913L204.029 113.327C216.941 100.415 223.402 84.6191 223.402 66H221.402ZM127.194 96.4071C135.076 104.289 144.997 108.22 156.882 108.22V106.22C145.486 106.22 136.087 102.471 128.609 94.9929L127.194 96.4071ZM156.882 108.22C168.766 108.22 178.687 104.289 186.569 96.4071L185.154 94.9929C177.676 102.471 168.277 106.22 156.882 106.22V108.22ZM186.569 96.4071C194.574 88.4022 198.562 78.2395 198.562 66H196.562C196.562 77.7605 192.75 87.3978 185.154 94.9929L186.569 96.4071ZM198.562 66C198.562 53.7605 194.574 43.5978 186.569 35.5929L185.154 37.0071C192.75 44.6022 196.562 54.2395 196.562 66H198.562ZM186.569 35.5929C178.572 27.5963 168.654 23.6 156.882 23.6V25.6C168.149 25.6 177.551 29.4037 185.154 37.0071L186.569 35.5929ZM156.882 23.6C145.109 23.6 135.191 27.5963 127.194 35.5929L128.609 37.0071C136.212 29.4037 145.614 25.6 156.882 25.6V23.6ZM127.194 35.5929C119.19 43.5978 115.202 53.7605 115.202 66H117.202C117.202 54.2395 121.014 44.6022 128.609 37.0071L127.194 35.5929ZM115.202 66C115.202 78.2395 119.19 88.4022 127.194 96.4071L128.609 94.9929C121.014 87.3978 117.202 77.7605 117.202 66H115.202ZM251.401 119.64L250.741 120.391L251.401 119.64ZM237.901 2.99999V1.99999H236.901V2.99999H237.901ZM262.561 2.99999H263.561V1.99999H262.561V2.99999ZM268.321 101.64L267.614 102.347L267.625 102.358L267.637 102.369L268.321 101.64ZM303.421 101.64L304.117 102.358L304.117 102.358L303.421 101.64ZM309.361 2.99999V1.99999H308.361V2.99999H309.361ZM334.201 2.99999H335.201V1.99999H334.201V2.99999ZM320.701 119.64L321.362 120.391L320.701 119.64ZM285.961 130.52C272.12 130.52 260.849 126.622 252.062 118.889L250.741 120.391C259.954 128.498 271.722 132.52 285.961 132.52V130.52ZM252.062 118.889C243.303 111.182 238.901 100.848 238.901 87.78H236.901C236.901 101.352 241.499 112.258 250.741 120.391L252.062 118.889ZM238.901 87.78V2.99999H236.901V87.78H238.901ZM237.901 3.99999H262.561V1.99999H237.901V3.99999ZM261.561 2.99999V85.8H263.561V2.99999H261.561ZM261.561 85.8C261.561 92.7185 263.544 98.2771 267.614 102.347L269.028 100.933C265.418 97.3229 263.561 92.3215 263.561 85.8H261.561ZM267.637 102.369C271.849 106.326 278.017 108.22 285.961 108.22V106.22C278.305 106.22 272.713 104.394 269.006 100.911L267.637 102.369ZM285.961 108.22C293.902 108.22 300.02 106.327 304.117 102.358L302.725 100.922C299.143 104.393 293.62 106.22 285.961 106.22V108.22ZM304.117 102.358C308.313 98.2897 310.361 92.7273 310.361 85.8H308.361C308.361 92.3127 306.45 97.3103 302.725 100.922L304.117 102.358ZM310.361 85.8V2.99999H308.361V85.8H310.361ZM309.361 3.99999H334.201V1.99999H309.361V3.99999ZM333.201 2.99999V87.78H335.201V2.99999H333.201ZM333.201 87.78C333.201 100.848 328.799 111.182 320.041 118.889L321.362 120.391C330.603 112.258 335.201 101.352 335.201 87.78H333.201ZM320.041 118.889C311.255 126.62 299.925 130.52 285.961 130.52V132.52C300.318 132.52 312.147 128.5 321.362 120.391L320.041 118.889ZM429.479 79.86L428.661 80.4349L430.479 83.0228V79.86H429.479ZM429.479 2.99999V1.99999H428.479V2.99999H429.479ZM454.319 2.99999H455.319V1.99999H454.319V2.99999ZM454.319 129V130H455.319V129H454.319ZM435.419 129L434.6 129.574L434.899 130H435.419V129ZM381.419 51.96L382.238 51.386L380.419 48.7911V51.96H381.419ZM381.419 129V130H382.419V129H381.419ZM356.579 129H355.579V130H356.579V129ZM356.579 2.99999V1.99999H355.579V2.99999H356.579ZM375.479 2.99999L376.297 2.42511L375.998 1.99999H375.479V2.99999ZM430.479 79.86V2.99999H428.479V79.86H430.479ZM429.479 3.99999H454.319V1.99999H429.479V3.99999ZM453.319 2.99999V129H455.319V2.99999H453.319ZM454.319 128H435.419V130H454.319V128ZM436.238 128.426L382.238 51.386L380.6 52.534L434.6 129.574L436.238 128.426ZM380.419 51.96V129H382.419V51.96H380.419ZM381.419 128H356.579V130H381.419V128ZM357.579 129V2.99999H355.579V129H357.579ZM356.579 3.99999H375.479V1.99999H356.579V3.99999ZM374.661 3.57487L428.661 80.4349L430.297 79.2851L376.297 2.42511L374.661 3.57487ZM468.332 2.99999V1.99999H467.332V2.99999H468.332ZM561.032 2.99999H562.032V1.99999H561.032V2.99999ZM561.032 26.76V27.76H562.032V26.76H561.032ZM527.012 26.76V25.76H526.012V26.76H527.012ZM527.012 129V130H528.012V129H527.012ZM502.172 129H501.172V130H502.172V129ZM502.172 26.76H503.172V25.76H502.172V26.76ZM468.332 26.76H467.332V27.76H468.332V26.76ZM468.332 3.99999H561.032V1.99999H468.332V3.99999ZM560.032 2.99999V26.76H562.032V2.99999H560.032ZM561.032 25.76H527.012V27.76H561.032V25.76ZM526.012 26.76V129H528.012V26.76H526.012ZM527.012 128H502.172V130H527.012V128ZM503.172 129V26.76H501.172V129H503.172ZM502.172 25.76H468.332V27.76H502.172V25.76ZM469.332 26.76V2.99999H467.332V26.76H469.332ZM636.819 129V130H637.537L637.767 129.319L636.819 129ZM606.039 129L605.091 129.318L605.32 130H606.039V129ZM563.739 2.99999V1.99999H562.349L562.791 3.31825L563.739 2.99999ZM590.739 2.99999L591.692 2.69708L591.471 1.99999H590.739V2.99999ZM621.519 99.84L620.566 100.143L621.522 103.15L622.473 100.141L621.519 99.84ZM652.119 2.99999V1.99999H651.386L651.166 2.69869L652.119 2.99999ZM679.299 2.99999L680.247 3.31947L680.692 1.99999H679.299V2.99999ZM636.819 128H606.039V130H636.819V128ZM606.987 128.682L564.687 2.68173L562.791 3.31825L605.091 129.318L606.987 128.682ZM563.739 3.99999H590.739V1.99999H563.739V3.99999ZM589.786 3.3029L620.566 100.143L622.472 99.5371L591.692 2.69708L589.786 3.3029ZM622.473 100.141L653.073 3.30129L651.166 2.69869L620.566 99.5387L622.473 100.141ZM652.119 3.99999H679.299V1.99999H652.119V3.99999ZM678.352 2.68052L635.872 128.681L637.767 129.319L680.247 3.31947L678.352 2.68052ZM716.282 76.98V75.98H715.282V76.98H716.282ZM716.282 105.24H715.282V106.24H716.282V105.24ZM769.382 105.24H770.382V104.24H769.382V105.24ZM769.382 129V130H770.382V129H769.382ZM691.442 129H690.442V130H691.442V129ZM691.442 2.99999V1.99999H690.442V2.99999H691.442ZM768.482 2.99999H769.482V1.99999H768.482V2.99999ZM768.482 26.76V27.76H769.482V26.76H768.482ZM716.282 26.76V25.76H715.282V26.76H716.282ZM716.282 53.58H715.282V54.58H716.282V53.58ZM763.982 53.58H764.982V52.58H763.982V53.58ZM763.982 76.98V77.98H764.982V76.98H763.982ZM715.282 76.98V105.24H717.282V76.98H715.282ZM716.282 106.24H769.382V104.24H716.282V106.24ZM768.382 105.24V129H770.382V105.24H768.382ZM769.382 128H691.442V130H769.382V128ZM692.442 129V2.99999H690.442V129H692.442ZM691.442 3.99999H768.482V1.99999H691.442V3.99999ZM767.482 2.99999V26.76H769.482V2.99999H767.482ZM768.482 25.76H716.282V27.76H768.482V25.76ZM715.282 26.76V53.58H717.282V26.76H715.282ZM716.282 54.58H763.982V52.58H716.282V54.58ZM762.982 53.58V76.98H764.982V53.58H762.982ZM763.982 75.98H716.282V77.98H763.982V75.98ZM882.831 129V130H884.578L883.694 128.494L882.831 129ZM856.011 129L855.146 129.502L855.436 130H856.011V129ZM830.631 85.26L831.496 84.7581L831.207 84.26H830.631V85.26ZM811.731 85.26V84.26H810.731V85.26H811.731ZM811.731 129V130H812.731V129H811.731ZM786.891 129H785.891V130H786.891V129ZM786.891 2.99999V1.99999H785.891V2.99999H786.891ZM866.991 15.24L867.698 14.5329L866.991 15.24ZM872.571 66.54L873.401 67.0982L873.406 67.0913L872.571 66.54ZM854.931 81.48L854.514 80.5712L853.509 81.0326L854.069 81.9863L854.931 81.48ZM811.731 26.22V25.22H810.731V26.22H811.731ZM811.731 63.48H810.731V64.48H811.731V63.48ZM849.351 58.08L850.083 58.7623L850.088 58.7563L850.094 58.7503L849.351 58.08ZM849.351 31.62L848.62 32.3023L849.351 31.62ZM882.831 128H856.011V130H882.831V128ZM856.876 128.498L831.496 84.7581L829.766 85.7619L855.146 129.502L856.876 128.498ZM830.631 84.26H811.731V86.26H830.631V84.26ZM810.731 85.26V129H812.731V85.26H810.731ZM811.731 128H786.891V130H811.731V128ZM787.891 129V2.99999H785.891V129H787.891ZM786.891 3.99999H837.291V1.99999H786.891V3.99999ZM837.291 3.99999C848.669 3.99999 858.314 7.97646 866.284 15.9471L867.698 14.5329C859.349 6.18353 849.194 1.99999 837.291 1.99999V3.99999ZM866.284 15.9471C874.257 23.9199 878.231 33.5057 878.231 44.76H880.231C880.231 32.9743 876.046 22.8801 867.698 14.5329L866.284 15.9471ZM878.231 44.76C878.231 52.3573 876.073 59.4266 871.737 65.9887L873.406 67.0913C877.95 60.2134 880.231 52.7627 880.231 44.76H878.231ZM871.742 65.9818C867.406 72.4272 861.669 77.2869 854.514 80.5712L855.349 82.3888C862.833 78.9531 868.857 73.8528 873.401 67.0982L871.742 65.9818ZM854.069 81.9863L881.969 129.506L883.694 128.494L855.794 80.9737L854.069 81.9863ZM837.291 25.22H811.731V27.22H837.291V25.22ZM810.731 26.22V63.48H812.731V26.22H810.731ZM811.731 64.48H837.291V62.48H811.731V64.48ZM837.291 64.48C842.264 64.48 846.544 62.553 850.083 58.7623L848.62 57.3977C845.438 60.8069 841.678 62.48 837.291 62.48V64.48ZM850.094 58.7503C853.625 54.8406 855.391 50.1596 855.391 44.76H853.391C853.391 49.6804 851.798 53.8794 848.609 57.4097L850.094 58.7503ZM855.391 44.76C855.391 39.3601 853.624 34.7324 850.083 30.9377L848.62 32.3023C851.799 35.7076 853.391 39.8399 853.391 44.76H855.391ZM850.083 30.9377C846.544 27.1469 842.264 25.22 837.291 25.22V27.22C841.678 27.22 845.438 28.893 848.62 32.3023L850.083 30.9377ZM897.458 129H896.458V130H897.458V129ZM897.458 2.99999V1.99999H896.458V2.99999H897.458ZM922.298 2.99999H923.298V1.99999H922.298V2.99999ZM922.298 129V130H923.298V129H922.298ZM898.458 129V2.99999H896.458V129H898.458ZM897.458 3.99999H922.298V1.99999H897.458V3.99999ZM921.298 2.99999V129H923.298V2.99999H921.298ZM922.298 128H897.458V130H922.298V128ZM1020.86 2.99999H1021.86V1.99999H1020.86V2.99999ZM1020.86 26.76V27.76H1021.86V26.76H1020.86ZM970.462 26.76V25.76H969.462V26.76H970.462ZM970.462 56.64H969.462V57.64H970.462V56.64ZM1019.42 56.64H1020.42V55.64H1019.42V56.64ZM1019.42 80.4V81.4H1020.42V80.4H1019.42ZM970.462 80.4V79.4H969.462V80.4H970.462ZM970.462 129V130H971.462V129H970.462ZM945.622 129H944.622V130H945.622V129ZM945.622 2.99999V1.99999H944.622V2.99999H945.622ZM1019.86 2.99999V26.76H1021.86V2.99999H1019.86ZM1020.86 25.76H970.462V27.76H1020.86V25.76ZM969.462 26.76V56.64H971.462V26.76H969.462ZM970.462 57.64H1019.42V55.64H970.462V57.64ZM1018.42 56.64V80.4H1020.42V56.64H1018.42ZM1019.42 79.4H970.462V81.4H1019.42V79.4ZM969.462 80.4V129H971.462V80.4H969.462ZM970.462 128H945.622V130H970.462V128ZM946.622 129V2.99999H944.622V129H946.622ZM945.622 3.99999H1020.86V1.99999H945.622V3.99999ZM1038.96 129H1037.96V130H1038.96V129ZM1038.96 2.99999V1.99999H1037.96V2.99999H1038.96ZM1063.8 2.99999H1064.8V1.99999H1063.8V2.99999ZM1063.8 129V130H1064.8V129H1063.8ZM1039.96 129V2.99999H1037.96V129H1039.96ZM1038.96 3.99999H1063.8V1.99999H1038.96V3.99999ZM1062.8 2.99999V129H1064.8V2.99999H1062.8ZM1063.8 128H1038.96V130H1063.8V128ZM1099.91 112.62L1099.2 113.324V113.324L1099.91 112.62ZM1099.91 19.38L1100.61 20.0871L1100.62 20.0837L1099.91 19.38ZM1178.39 8.57999L1177.9 9.45157L1177.9 9.45519L1177.91 9.45872L1178.39 8.57999ZM1201.07 30.18L1201.57 31.0451L1202.44 30.5389L1201.93 29.6705L1201.07 30.18ZM1179.65 42.6L1178.77 43.0841L1179.26 43.9769L1180.15 43.4651L1179.65 42.6ZM1166.33 29.46L1165.84 30.3316L1165.84 30.3355L1165.85 30.3393L1166.33 29.46ZM1117.19 36.12L1116.47 35.4185L1116.47 35.4241L1116.46 35.4298L1117.19 36.12ZM1117.19 95.7L1116.46 96.3902L1116.47 96.3959L1116.47 96.4015L1117.19 95.7ZM1166.33 102.54L1166.8 103.419L1166.81 103.416L1166.33 102.54ZM1179.65 89.4L1180.15 88.5349L1179.26 88.0192L1178.77 88.9225L1179.65 89.4ZM1201.07 101.82L1201.93 102.329L1202.44 101.461L1201.57 100.955L1201.07 101.82ZM1178.39 123.6L1178.87 124.476L1178.87 124.474L1178.39 123.6ZM1146.89 130.52C1128.29 130.52 1112.9 124.314 1100.62 111.916L1099.2 113.324C1111.88 126.126 1127.8 132.52 1146.89 132.52V130.52ZM1100.62 111.916C1088.45 99.6355 1082.37 84.3537 1082.37 66H1080.37C1080.37 84.8463 1086.64 100.645 1099.2 113.324L1100.62 111.916ZM1082.37 66C1082.37 47.5244 1088.45 32.2453 1100.61 20.0871L1099.2 18.6729C1086.64 31.2347 1080.37 47.0356 1080.37 66H1082.37ZM1100.62 20.0837C1112.9 7.68606 1128.29 1.47999 1146.89 1.47999V-0.520008C1127.8 -0.520008 1111.88 5.87392 1099.2 18.6763L1100.62 20.0837ZM1146.89 1.47999C1158.12 1.47999 1168.45 4.13878 1177.9 9.45157L1178.88 7.70842C1169.12 2.2212 1158.45 -0.520008 1146.89 -0.520008V1.47999ZM1177.91 9.45872C1187.48 14.6564 1194.9 21.7319 1200.21 30.6895L1201.93 29.6705C1196.43 20.3881 1188.73 13.0636 1178.86 7.70127L1177.91 9.45872ZM1200.56 29.3149L1179.14 41.7349L1180.15 43.4651L1201.57 31.0451L1200.56 29.3149ZM1180.52 42.1159C1177.31 36.3059 1172.73 31.7901 1166.8 28.5807L1165.85 30.3393C1171.44 33.3699 1175.74 37.614 1178.77 43.0841L1180.52 42.1159ZM1166.82 28.5884C1160.89 25.2568 1154.24 23.6 1146.89 23.6V25.6C1153.93 25.6 1160.24 27.1832 1165.84 30.3316L1166.82 28.5884ZM1146.89 23.6C1134.42 23.6 1124.25 27.521 1116.47 35.4185L1117.9 36.8215C1125.24 29.359 1134.87 25.6 1146.89 25.6V23.6ZM1116.46 35.4298C1108.82 43.4394 1105.03 53.6576 1105.03 66H1107.03C1107.03 54.1024 1110.67 44.4006 1117.91 36.8102L1116.46 35.4298ZM1105.03 66C1105.03 78.2254 1108.82 88.3825 1116.46 96.3902L1117.91 95.0098C1110.67 87.4175 1107.03 77.7746 1107.03 66H1105.03ZM1116.47 96.4015C1124.25 104.299 1134.42 108.22 1146.89 108.22V106.22C1134.87 106.22 1125.24 102.461 1117.9 94.9985L1116.47 96.4015ZM1146.89 108.22C1154.24 108.22 1160.88 106.626 1166.8 103.419L1165.85 101.661C1160.25 104.694 1153.94 106.22 1146.89 106.22V108.22ZM1166.81 103.416C1172.84 100.09 1177.43 95.577 1180.52 89.8775L1178.77 88.9225C1175.86 94.263 1171.57 98.5098 1165.84 101.664L1166.81 103.416ZM1179.14 90.2651L1200.56 102.685L1201.57 100.955L1180.15 88.5349L1179.14 90.2651ZM1200.21 101.311C1194.9 110.27 1187.47 117.408 1177.9 122.726L1178.87 124.474C1188.74 118.992 1196.43 111.61 1201.93 102.329L1200.21 101.311ZM1177.9 122.724C1168.46 127.919 1158.12 130.52 1146.89 130.52V132.52C1158.45 132.52 1169.11 129.841 1178.87 124.476L1177.9 122.724ZM1323.8 129V130H1325.21L1324.74 128.668L1323.8 129ZM1296.8 129L1295.85 129.316L1296.08 130H1296.8V129ZM1289.24 106.32L1290.19 106.004L1289.96 105.32H1289.24V106.32ZM1239.02 106.32V105.32H1238.3L1238.07 106.004L1239.02 106.32ZM1231.46 129V130H1232.18L1232.41 129.316L1231.46 129ZM1204.64 129L1203.69 128.67L1203.23 130H1204.64V129ZM1248.74 2.99999V1.99999H1248.03L1247.79 2.66964L1248.74 2.99999ZM1279.52 2.99999L1280.46 2.66844L1280.23 1.99999H1279.52V2.99999ZM1264.22 31.62L1265.17 31.3018L1264.22 28.4775L1263.27 31.3018L1264.22 31.62ZM1246.94 83.1L1245.99 82.7818L1245.55 84.1H1246.94V83.1ZM1281.5 83.1V84.1H1282.89L1282.45 82.7818L1281.5 83.1ZM1323.8 128H1296.8V130H1323.8V128ZM1297.75 128.684L1290.19 106.004L1288.29 106.636L1295.85 129.316L1297.75 128.684ZM1289.24 105.32H1239.02V107.32H1289.24V105.32ZM1238.07 106.004L1230.51 128.684L1232.41 129.316L1239.97 106.636L1238.07 106.004ZM1231.46 128H1204.64V130H1231.46V128ZM1205.58 129.33L1249.68 3.33034L1247.79 2.66964L1203.69 128.67L1205.58 129.33ZM1248.74 3.99999H1279.52V1.99999H1248.74V3.99999ZM1278.57 3.33154L1322.85 129.332L1324.74 128.668L1280.46 2.66844L1278.57 3.33154ZM1263.27 31.3018L1245.99 82.7818L1247.89 83.4182L1265.17 31.9382L1263.27 31.3018ZM1246.94 84.1H1281.5V82.1H1246.94V84.1ZM1282.45 82.7818L1265.17 31.3018L1263.27 31.9382L1280.55 83.4182L1282.45 82.7818ZM1317.53 2.99999V1.99999H1316.53V2.99999H1317.53ZM1410.23 2.99999H1411.23V1.99999H1410.23V2.99999ZM1410.23 26.76V27.76H1411.23V26.76H1410.23ZM1376.21 26.76V25.76H1375.21V26.76H1376.21ZM1376.21 129V130H1377.21V129H1376.21ZM1351.37 129H1350.37V130H1351.37V129ZM1351.37 26.76H1352.37V25.76H1351.37V26.76ZM1317.53 26.76H1316.53V27.76H1317.53V26.76ZM1317.53 3.99999H1410.23V1.99999H1317.53V3.99999ZM1409.23 2.99999V26.76H1411.23V2.99999H1409.23ZM1410.23 25.76H1376.21V27.76H1410.23V25.76ZM1375.21 26.76V129H1377.21V26.76H1375.21ZM1376.21 128H1351.37V130H1376.21V128ZM1352.37 129V26.76H1350.37V129H1352.37ZM1351.37 25.76H1317.53V27.76H1351.37V25.76ZM1318.53 26.76V2.99999H1316.53V26.76H1318.53ZM1424.1 129H1423.1V130H1424.1V129ZM1424.1 2.99999V1.99999H1423.1V2.99999H1424.1ZM1448.94 2.99999H1449.94V1.99999H1448.94V2.99999ZM1448.94 129V130H1449.94V129H1448.94ZM1425.1 129V2.99999H1423.1V129H1425.1ZM1424.1 3.99999H1448.94V1.99999H1424.1V3.99999ZM1447.94 2.99999V129H1449.94V2.99999H1447.94ZM1448.94 128H1424.1V130H1448.94V128ZM1578.28 112.62L1578.99 113.33L1578.99 113.327L1578.28 112.62ZM1485.4 112.62L1484.69 113.32L1484.69 113.325L1484.7 113.33L1485.4 112.62ZM1485.4 19.56L1484.7 18.8529L1485.4 19.56ZM1578.28 19.56L1577.58 20.2671L1577.58 20.2704L1578.28 19.56ZM1502.86 95.7L1502.16 96.4071L1502.86 95.7ZM1560.82 95.7L1561.53 96.4071L1560.82 95.7ZM1560.82 36.3L1561.53 35.5929L1560.82 36.3ZM1502.86 36.3L1502.16 35.5929L1502.86 36.3ZM1577.58 111.91C1565.05 124.32 1549.82 130.52 1531.84 130.52V132.52C1550.34 132.52 1566.08 126.12 1578.99 113.33L1577.58 111.91ZM1531.84 130.52C1513.86 130.52 1498.64 124.32 1486.11 111.91L1484.7 113.33C1497.61 126.12 1513.34 132.52 1531.84 132.52V130.52ZM1486.12 111.92C1473.7 99.2695 1467.5 83.9821 1467.5 66H1465.5C1465.5 84.4979 1471.9 100.291 1484.69 113.32L1486.12 111.92ZM1467.5 66C1467.5 47.8962 1473.7 32.6733 1486.11 20.2671L1484.7 18.8529C1471.9 31.6467 1465.5 47.3838 1465.5 66H1467.5ZM1486.11 20.2671C1498.64 7.73756 1513.86 1.47999 1531.84 1.47999V-0.520008C1513.34 -0.520008 1497.61 5.94243 1484.7 18.8529L1486.11 20.2671ZM1531.84 1.47999C1549.82 1.47999 1565.05 7.73756 1577.58 20.2671L1578.99 18.8529C1566.08 5.94243 1550.34 -0.520008 1531.84 -0.520008V1.47999ZM1577.58 20.2704C1590.1 32.6773 1596.36 47.8992 1596.36 66H1598.36C1598.36 47.3808 1591.9 31.6426 1578.99 18.8495L1577.58 20.2704ZM1596.36 66C1596.36 84.1009 1590.1 99.3847 1577.58 111.913L1578.99 113.327C1591.9 100.415 1598.36 84.6191 1598.36 66H1596.36ZM1502.16 96.4071C1510.04 104.289 1519.96 108.22 1531.84 108.22V106.22C1520.45 106.22 1511.05 102.471 1503.57 94.9929L1502.16 96.4071ZM1531.84 108.22C1543.73 108.22 1553.65 104.289 1561.53 96.4071L1560.12 94.9929C1552.64 102.471 1543.24 106.22 1531.84 106.22V108.22ZM1561.53 96.4071C1569.53 88.4022 1573.52 78.2395 1573.52 66H1571.52C1571.52 77.7605 1567.71 87.3978 1560.12 94.9929L1561.53 96.4071ZM1573.52 66C1573.52 53.7605 1569.53 43.5978 1561.53 35.5929L1560.12 37.0071C1567.71 44.6022 1571.52 54.2395 1571.52 66H1573.52ZM1561.53 35.5929C1553.53 27.5963 1543.61 23.6 1531.84 23.6V25.6C1543.11 25.6 1552.51 29.4037 1560.12 37.0071L1561.53 35.5929ZM1531.84 23.6C1520.07 23.6 1510.15 27.5963 1502.16 35.5929L1503.57 37.0071C1511.17 29.4037 1520.57 25.6 1531.84 25.6V23.6ZM1502.16 35.5929C1494.15 43.5978 1490.16 53.7605 1490.16 66H1492.16C1492.16 54.2395 1495.97 44.6022 1503.57 37.0071L1502.16 35.5929ZM1490.16 66C1490.16 78.2395 1494.15 88.4022 1502.16 96.4071L1503.57 94.9929C1495.97 87.3978 1492.16 77.7605 1492.16 66H1490.16ZM1687.72 79.86L1686.9 80.4349L1688.72 83.0228V79.86H1687.72ZM1687.72 2.99999V1.99999H1686.72V2.99999H1687.72ZM1712.56 2.99999H1713.56V1.99999H1712.56V2.99999ZM1712.56 129V130H1713.56V129H1712.56ZM1693.66 129L1692.84 129.574L1693.14 130H1693.66V129ZM1639.66 51.96L1640.48 51.386L1638.66 48.7911V51.96H1639.66ZM1639.66 129V130H1640.66V129H1639.66ZM1614.82 129H1613.82V130H1614.82V129ZM1614.82 2.99999V1.99999H1613.82V2.99999H1614.82ZM1633.72 2.99999L1634.54 2.42511L1634.24 1.99999H1633.72V2.99999ZM1688.72 79.86V2.99999H1686.72V79.86H1688.72ZM1687.72 3.99999H1712.56V1.99999H1687.72V3.99999ZM1711.56 2.99999V129H1713.56V2.99999H1711.56ZM1712.56 128H1693.66V130H1712.56V128ZM1694.48 128.426L1640.48 51.386L1638.84 52.534L1692.84 129.574L1694.48 128.426ZM1638.66 51.96V129H1640.66V51.96H1638.66ZM1639.66 128H1614.82V130H1639.66V128ZM1615.82 129V2.99999H1613.82V129H1615.82ZM1614.82 3.99999H1633.72V1.99999H1614.82V3.99999ZM1632.9 3.57487L1686.9 80.4349L1688.54 79.2851L1634.54 2.42511L1632.9 3.57487Z"
          fill="url(#paint0_linear_1_743)"/>
    <defs>
        <linearGradient id="paint0_linear_1_743" x1="1590.12" y1="8.79268" x2="1541.55" y2="394.69"
                        gradientUnits="userSpaceOnUse">
            <stop stop-color="#5790FF"/>
            <stop offset="1" stop-color="#A5FDC3"/>
        </linearGradient>
    </defs>
</svg>
