<svg width="566" height="132" viewBox="0 0 566 132" fill="none" xmlns="http://www.w3.org/2000/svg">
    <path opacity="0.3"
          d="M0.700001 129H-0.299999V130H0.700001V129ZM0.700001 2.99999V1.99999H-0.299999V2.99999H0.700001ZM25.54 2.99999H26.54V1.99999H25.54V2.99999ZM25.54 129V130H26.54V129H25.54ZM1.7 129V2.99999H-0.299999V129H1.7ZM0.700001 3.99999H25.54V1.99999H0.700001V3.99999ZM24.54 2.99999V129H26.54V2.99999H24.54ZM25.54 128H0.700001V130H25.54V128ZM121.764 79.86L120.946 80.4349L122.764 83.0228V79.86H121.764ZM121.764 2.99999V1.99999H120.764V2.99999H121.764ZM146.604 2.99999H147.604V1.99999H146.604V2.99999ZM146.604 129V130H147.604V129H146.604ZM127.704 129L126.885 129.574L127.184 130H127.704V129ZM73.7041 51.96L74.5229 51.386L72.7041 48.7911V51.96H73.7041ZM73.7041 129V130H74.7041V129H73.7041ZM48.8641 129H47.8641V130H48.8641V129ZM48.8641 2.99999V1.99999H47.8641V2.99999H48.8641ZM67.7641 2.99999L68.5823 2.42511L68.2836 1.99999H67.7641V2.99999ZM122.764 79.86V2.99999H120.764V79.86H122.764ZM121.764 3.99999H146.604V1.99999H121.764V3.99999ZM145.604 2.99999V129H147.604V2.99999H145.604ZM146.604 128H127.704V130H146.604V128ZM128.523 128.426L74.5229 51.386L72.8852 52.534L126.885 129.574L128.523 128.426ZM72.7041 51.96V129H74.7041V51.96H72.7041ZM73.7041 128H48.8641V130H73.7041V128ZM49.8641 129V2.99999H47.8641V129H49.8641ZM48.8641 3.99999H67.7641V1.99999H48.8641V3.99999ZM66.9458 3.57487L120.946 80.4349L122.582 79.2851L68.5823 2.42511L66.9458 3.57487ZM231.897 129V130H232.616L232.845 129.319L231.897 129ZM201.117 129L200.169 129.318L200.398 130H201.117V129ZM158.817 2.99999V1.99999H157.427L157.869 3.31825L158.817 2.99999ZM185.817 2.99999L186.77 2.69708L186.549 1.99999H185.817V2.99999ZM216.597 99.84L215.644 100.143L216.6 103.15L217.551 100.141L216.597 99.84ZM247.197 2.99999V1.99999H246.465L246.244 2.69869L247.197 2.99999ZM274.377 2.99999L275.325 3.31947L275.77 1.99999H274.377V2.99999ZM231.897 128H201.117V130H231.897V128ZM202.065 128.682L159.765 2.68173L157.869 3.31825L200.169 129.318L202.065 128.682ZM158.817 3.99999H185.817V1.99999H158.817V3.99999ZM184.864 3.3029L215.644 100.143L217.55 99.5371L186.77 2.69708L184.864 3.3029ZM217.551 100.141L248.151 3.30129L246.244 2.69869L215.644 99.5387L217.551 100.141ZM247.197 3.99999H274.377V1.99999H247.197V3.99999ZM273.43 2.68052L230.95 128.681L232.845 129.319L275.325 3.31947L273.43 2.68052ZM311.36 76.98V75.98H310.36V76.98H311.36ZM311.36 105.24H310.36V106.24H311.36V105.24ZM364.46 105.24H365.46V104.24H364.46V105.24ZM364.46 129V130H365.46V129H364.46ZM286.52 129H285.52V130H286.52V129ZM286.52 2.99999V1.99999H285.52V2.99999H286.52ZM363.56 2.99999H364.56V1.99999H363.56V2.99999ZM363.56 26.76V27.76H364.56V26.76H363.56ZM311.36 26.76V25.76H310.36V26.76H311.36ZM311.36 53.58H310.36V54.58H311.36V53.58ZM359.06 53.58H360.06V52.58H359.06V53.58ZM359.06 76.98V77.98H360.06V76.98H359.06ZM310.36 76.98V105.24H312.36V76.98H310.36ZM311.36 106.24H364.46V104.24H311.36V106.24ZM363.46 105.24V129H365.46V105.24H363.46ZM364.46 128H286.52V130H364.46V128ZM287.52 129V2.99999H285.52V129H287.52ZM286.52 3.99999H363.56V1.99999H286.52V3.99999ZM362.56 2.99999V26.76H364.56V2.99999H362.56ZM363.56 25.76H311.36V27.76H363.56V25.76ZM310.36 26.76V53.58H312.36V26.76H310.36ZM311.36 54.58H359.06V52.58H311.36V54.58ZM358.06 53.58V76.98H360.06V53.58H358.06ZM359.06 75.98H311.36V77.98H359.06V75.98ZM393.67 123.24L394.213 122.401L393.67 123.24ZM375.49 100.38L374.985 99.5168L374.26 99.9404L374.552 100.727L375.49 100.38ZM396.73 87.96L397.663 87.6022L397.242 86.502L396.225 87.0967L396.73 87.96ZM440.83 103.62L441.411 104.434L440.83 103.62ZM439.93 83.64L439.393 84.4837L439.402 84.4895L439.411 84.4952L439.93 83.64ZM418.69 75.54L418.398 76.4967L418.408 76.4996L418.418 76.5024L418.69 75.54ZM392.59 63.84L391.993 64.6429L392.005 64.6516L392.017 64.66L392.59 63.84ZM392.77 10.74L393.404 11.5129L393.411 11.5074L393.418 11.5017L392.77 10.74ZM448.93 7.85999L448.396 8.70579L448.93 7.85999ZM467.11 28.74L467.61 29.6059L468.412 29.1425L468.011 28.3073L467.11 28.74ZM446.23 40.8L445.323 41.2229L445.785 42.2117L446.73 41.6659L446.23 40.8ZM410.05 28.2L410.655 28.9962L410.665 28.9886L410.674 28.9809L410.05 28.2ZM410.41 46.92L409.796 47.7094L409.815 47.7248L409.836 47.7392L410.41 46.92ZM429.49 54.84L429.806 53.8913L429.793 53.8869L429.779 53.8829L429.49 54.84ZM438.13 57.72L437.813 58.6687L437.824 58.6724L437.835 58.6758L438.13 57.72ZM446.23 60.78L445.853 61.7065L445.869 61.7129L445.885 61.7189L446.23 60.78ZM454.15 64.56L453.568 65.3737L453.597 65.3943L453.627 65.4128L454.15 64.56ZM466.03 75.72L465.146 76.1892L465.162 76.2183L465.179 76.2464L466.03 75.72ZM457.93 121.26L457.303 120.48L457.93 121.26ZM424.99 130.52C412.78 130.52 402.539 127.795 394.213 122.401L393.126 124.079C401.84 129.725 412.479 132.52 424.99 132.52V130.52ZM394.213 122.401C385.878 117.001 379.954 109.555 376.427 100.033L374.552 100.727C378.225 110.645 384.421 118.439 393.126 124.079L394.213 122.401ZM375.994 101.243L397.234 88.8232L396.225 87.0967L374.985 99.5168L375.994 101.243ZM395.796 88.3178C398.316 94.8949 402.078 99.8927 407.111 103.238C412.141 106.581 418.36 108.22 425.71 108.22V106.22C418.659 106.22 412.848 104.649 408.218 101.572C403.591 98.4973 400.063 93.8651 397.663 87.6022L395.796 88.3178ZM425.71 108.22C432.518 108.22 437.805 107.01 441.411 104.434L440.248 102.806C437.134 105.03 432.341 106.22 425.71 106.22V108.22ZM441.411 104.434C445.03 101.849 446.87 98.3076 446.87 93.9H444.87C444.87 97.6525 443.349 100.591 440.248 102.806L441.411 104.434ZM446.87 93.9C446.87 89.0924 444.691 85.3566 440.448 82.7848L439.411 84.4952C443.088 86.7234 444.87 89.8276 444.87 93.9H446.87ZM440.466 82.7963C436.372 80.191 429.167 77.4594 418.961 74.5776L418.418 76.5024C428.612 79.3806 435.567 82.049 439.393 84.4837L440.466 82.7963ZM418.981 74.5833C407.997 71.2405 399.405 67.3784 393.162 63.02L392.017 64.66C398.494 69.1816 407.302 73.1195 418.398 76.4967L418.981 74.5833ZM393.186 63.0371C385.562 57.3769 381.71 49.0597 381.71 37.92H379.71C379.71 49.5803 383.777 58.5431 391.993 64.6429L393.186 63.0371ZM381.71 37.92C381.71 26.6629 385.622 17.901 393.404 11.5129L392.135 9.96707C383.837 16.779 379.71 26.1371 379.71 37.92H381.71ZM393.418 11.5017C401.26 4.82997 410.804 1.47999 422.11 1.47999V-0.520008C410.375 -0.520008 400.359 2.97002 392.122 9.97834L393.418 11.5017ZM422.11 1.47999C432.019 1.47999 440.77 3.89583 448.396 8.70579L449.463 7.01419C441.489 1.98415 432.36 -0.520008 422.11 -0.520008V1.47999ZM448.396 8.70579C456.024 13.5172 461.962 20.3277 466.208 29.1727L468.011 28.3073C463.617 19.1523 457.435 12.0428 449.463 7.01419L448.396 8.70579ZM466.609 27.8741L445.729 39.9341L446.73 41.6659L467.61 29.6059L466.609 27.8741ZM447.136 40.3771C444.556 34.8501 441.18 30.6424 436.977 27.8199C432.77 24.9942 427.799 23.6 422.11 23.6V25.6C427.46 25.6 432.029 26.9058 435.862 29.4801C439.7 32.0576 442.863 35.9499 445.323 41.2229L447.136 40.3771ZM422.11 23.6C416.914 23.6 412.651 24.8384 409.425 27.4191L410.674 28.9809C413.448 26.7616 417.225 25.6 422.11 25.6V23.6ZM409.444 27.4038C406.199 29.8701 404.55 33.1628 404.55 37.2H406.55C406.55 33.7972 407.9 31.0899 410.655 28.9962L409.444 27.4038ZM404.55 37.2C404.55 41.4815 406.322 45.008 409.796 47.7094L411.023 46.1306C408.017 43.792 406.55 40.8385 406.55 37.2H404.55ZM409.836 47.7392C413.576 50.3571 420.069 53.0337 429.2 55.7971L429.779 53.8829C420.671 51.1263 414.443 48.5229 410.983 46.1008L409.836 47.7392ZM429.173 55.7887L437.813 58.6687L438.446 56.7713L429.806 53.8913L429.173 55.7887ZM437.835 58.6758C439.349 59.1414 442.012 60.1458 445.853 61.7065L446.606 59.8535C442.768 58.2942 440.03 57.2586 438.424 56.7642L437.835 58.6758ZM445.885 61.7189C449.46 63.0296 451.999 64.2528 453.568 65.3737L454.731 63.7463C452.94 62.4672 450.199 61.1704 446.574 59.8411L445.885 61.7189ZM453.627 65.4128C459.436 68.9691 463.226 72.5738 465.146 76.1892L466.913 75.2508C464.753 71.1862 460.623 67.3509 454.672 63.7071L453.627 65.4128ZM465.179 76.2464C468.187 81.1051 469.71 86.8568 469.71 93.54H471.71C471.71 86.5432 470.112 80.4149 466.88 75.1936L465.179 76.2464ZM469.71 93.54C469.71 104.9 465.57 113.844 457.303 120.48L458.556 122.04C467.329 114.996 471.71 105.46 471.71 93.54H469.71ZM457.303 120.48C448.999 127.147 438.256 130.52 424.99 130.52V132.52C438.603 132.52 449.82 129.053 458.556 122.04L457.303 120.48ZM472.981 2.99999V1.99999H471.981V2.99999H472.981ZM565.681 2.99999H566.681V1.99999H565.681V2.99999ZM565.681 26.76V27.76H566.681V26.76H565.681ZM531.661 26.76V25.76H530.661V26.76H531.661ZM531.661 129V130H532.661V129H531.661ZM506.821 129H505.821V130H506.821V129ZM506.821 26.76H507.821V25.76H506.821V26.76ZM472.981 26.76H471.981V27.76H472.981V26.76ZM472.981 3.99999H565.681V1.99999H472.981V3.99999ZM564.681 2.99999V26.76H566.681V2.99999H564.681ZM565.681 25.76H531.661V27.76H565.681V25.76ZM530.661 26.76V129H532.661V26.76H530.661ZM531.661 128H506.821V130H531.661V128ZM507.821 129V26.76H505.821V129H507.821ZM506.821 25.76H472.981V27.76H506.821V25.76ZM473.981 26.76V2.99999H471.981V26.76H473.981Z"
          fill="url(#paint0_linear_5_2404)"/>
    <defs>
        <linearGradient id="paint0_linear_5_2404" x1="529.165" y1="8.79268" x2="385.301" y2="337.917"
                        gradientUnits="userSpaceOnUse">
            <stop stop-color="#5790FF"/>
            <stop offset="1" stop-color="#A5FDC3"/>
        </linearGradient>
    </defs>
</svg>